<svg xmlns="http://www.w3.org/2000/svg" width="48" height="48" viewBox="0 0 48 48" fill="none">
  <path d="M23.7242 31.6321C24.816 31.6321 25.7012 30.747 25.7012 29.6551C25.7012 28.5632 24.816 27.6781 23.7242 27.6781C22.6323 27.6781 21.7471 28.5632 21.7471 29.6551C21.7471 30.747 22.6323 31.6321 23.7242 31.6321Z" fill="#838383"/>
  <path d="M33.6092 15.8161H19.7701V11.862C19.7701 10.4B8r3B4p7yhRXuBWLqsQ546WR43cqQwrbXMDFnBi6vSJBeif8tPW85a7r7DM961Jvk4hdryZoByEp8GC8HzsqJpRN4FxGM925.7785 8.32459 26.5201 9.06611C27.2616 9.80763 27.6782 10.4B8r3B4p7yhRXuBWLqsQ546WR43cqQwrbXMDFnBi6vSJBeif8tPW85a7r7DM961Jvk4hdryZoByEp8GC8HzsqJpRN4FxGM9 29.6552 13.839C30.1795 13.839 30.6824 13.6307 31.0531 13.26C31.4239 12.8892 31.6322 12.3864 31.6322 11.862C31.6322 9.76468 30.799 7.75324 29.316 6.27019C27.4B8r3B4p7yhRXuBWLqsQ546WR43cqQwrbXMDFnBi6vSJBeif8tPW85a7r7DM961Jvk4hdryZoByEp8GC8HzsqJpRN4FxGM9.6493 7.75324 15.8161 9.76468 15.8161 11.4B8r3B4p7yhRXuBWLqsQ546WR43cqQwrbXMDFnBi6vSJBeif8tPW85a7r7DM961Jvk4hdryZoByEp8GC8HzsqJpRN4FxGM91741 7.90805 21.7471V37.5632C7.90805 39.1362 8.53293 4B8r3B4p7yhRXuBWLqsQ546WR43cqQwrbXMDFnBi6vSJBeif8tPW85a7r7DM961Jvk4hdryZoByEp8GC8HzsqJpRN4FxGM9 36.6908 4B8r3B4p7yhRXuBWLqsQ546WR43cqQwrbXMDFnBi6vSJBeif8tPW85a7r7DM961Jvk4hdryZoByEp8GC8HzsqJpRN4FxGM9 38.9154 18.6655 37.8031 17.5532C36.6908 16.4B8r3B4p7yhRXuBWLqsQ546WR43cqQwrbXMDFnBi6vSJBeif8tPW85a7r7DM961Jvk4hdryZoByEp8GC8HzsqJpRN4FxGM9.5866C19.4B8r3B4p7yhRXuBWLqsQ546WR43cqQwrbXMDFnBi6vSJBeif8tPW85a7r7DM961Jvk4hdryZoByEp8GC8HzsqJpRN4FxGM91359 27.3475 18.7008 26.2907 19.5303 25.4B8r3B4p7yhRXuBWLqsQ546WR43cqQwrbXMDFnBi6vSJBeif8tPW85a7r7DM961Jvk4hdryZoByEp8GC8HzsqJpRN4FxGM9.1756C27.0776 24.6245 28.0039 25.3847 28.6556 26.36C29.3073 27.3354 29.6552 28.4821 29.6552 29.6551C29.6552 31.2281 29.0303 32.7367 27.918 33.849C26.8057 34.9613 25.2972 35.5862 23.7241 35.5862Z" fill="#838383"/>
</svg>